<?xml version="1.0" encoding="UTF-8"?> <svg xmlns="http://www.w3.org/2000/svg" width="182" height="32" viewBox="0 0 182 32" fill="none"><g clip-path="url(#clip0_9898_36436)"><path fill-rule="evenodd" clip-rule="evenodd" d="M6.43307 0H25.5673C29.1053 0 32 2.89194 32 6.42664V25.5429C32 29.0776 29.1053 31.9695 25.5673 31.9695H6.43307C2.89472 31.9695 0 29.0776 0 25.5429V6.42664C0 2.89194 2.89472 0 6.43307 0Z" fill="url(#paint0_linear_9898_36436)"></path><path fill-rule="evenodd" clip-rule="evenodd" d="M9.24844 21.7577C5.72506 18.3997 3.5293 13.663 3.5293 8.41331C3.5293 8.12909 3.53626 7.84658 3.54949 7.56543L9.13531 8.0897C9.04306 13.2774 12.3492 18.0853 17.2103 20.0742V21.757H9.24844V21.7577Z" fill="url(#paint1_linear_9898_36436)"></path><path d="M13.7131 15.9927V31.9999H7.7677V15.9927H13.7131Z" fill="white"></path><path d="M7.76874 15.9959C7.76874 13.307 8.86383 10.8633 10.6307 9.09768C12.4088 7.33375 14.8493 6.23828 17.5358 6.23828C20.222 6.23828 22.6611 7.33375 24.4298 9.09768C26.2054 10.8756 27.3022 13.3121 27.3022 15.9959C27.3022 18.6806 26.2054 21.1188 24.4399 22.8841C22.6726 24.6604 20.2266 25.7538 17.5348 25.7538C14.8423 25.7538 12.3963 24.6597 10.63 22.8944C8.86279 21.1288 7.7677 18.6851 7.7677 15.9959H7.76874ZM14.8263 13.2892C14.1419 13.9837 13.7138 14.9408 13.7138 15.9959C13.7138 17.0513 14.1419 18.0084 14.8315 18.6974C15.5214 19.3867 16.4794 19.8141 17.5358 19.8141C18.5919 19.8141 19.5499 19.3867 20.2398 18.6974C20.9297 18.0139 21.3575 17.0554 21.3575 15.9959C21.3575 14.9377 20.9297 13.9782 20.2454 13.2892C19.5561 12.6053 18.5961 12.178 17.5365 12.178C16.4762 12.178 15.5166 12.6053 14.827 13.2892H14.8263Z" fill="white"></path><path d="M19.0872 25.6231C18.5835 25.7039 18.0642 25.7464 17.5379 25.7464C16.1831 25.7464 14.8896 25.4676 13.7162 24.968V16.0381C13.7301 17.074 14.1548 18.0126 14.8339 18.691C15.5235 19.38 16.4814 19.8074 17.5379 19.8074C18.0889 19.8074 18.6138 19.6896 19.0872 19.4814V25.6241V25.6231Z" fill="url(#paint2_linear_9898_36436)"></path></g><path d="M45.2117 8.86341V23H48.4429V18.5571H50.5634C51.9569 18.5571 53.1282 18.0926 54.0774 17.1434C55.0265 16.1942 55.5112 15.0633 55.5112 13.7102C55.5112 12.3572 55.0265 11.2262 54.0774 10.2771C53.1282 9.3279 51.9569 8.86341 50.5634 8.86341H45.2117ZM48.4429 15.5278V11.8927H50.5634C51.553 11.8927 52.28 12.6803 52.28 13.7102C52.28 14.7402 51.553 15.5278 50.5634 15.5278H48.4429ZM59.8547 12.9024H56.8255V23H59.8547V18.4359C59.8547 17.5271 60.1779 16.8809 60.8039 16.5174C61.4502 16.1337 62.1368 16.0125 62.884 16.1337V12.7005C61.5107 12.7005 60.2385 13.4073 59.8547 14.6998V12.9024ZM73.8796 19.1629C73.9604 18.7792 74.0008 18.3753 74.0008 17.9512C74.0008 16.4366 73.5161 15.1643 72.5266 14.1545C71.5572 13.1246 70.3455 12.6197 68.8712 12.6197C67.296 12.6197 66.0035 13.1246 64.9938 14.1545C64.0042 15.1643 63.4993 16.4366 63.4993 17.9512C63.4993 19.486 64.0042 20.7583 65.014 21.7681C66.0439 22.7779 67.397 23.2827 69.0934 23.2827C71.0321 23.2827 72.5064 22.5961 73.4959 21.2026L71.0725 19.8092C70.608 20.314 69.9618 20.5766 69.1338 20.5766C67.8615 20.5766 67.0537 20.1121 66.7104 19.1629H73.8796ZM66.6498 16.9011C66.9527 15.8307 67.6797 15.3057 68.851 15.3057C69.982 15.3057 70.6888 15.8307 70.9917 16.9011H66.6498ZM78.7482 23V8.25756H75.719V23H78.7482ZM88.2958 13.8516C87.589 13.0236 86.5792 12.6197 85.2867 12.6197C83.9538 12.6197 82.8229 13.1448 81.8737 14.1747C80.9246 15.2047 80.4601 16.4568 80.4601 17.9512C80.4601 19.4457 80.9246 20.718 81.8737 21.7479C82.8229 22.7779 83.9538 23.2827 85.2867 23.2827C86.5792 23.2827 87.589 22.8788 88.2958 22.0508V23H91.3251V12.9024H88.2958V13.8516ZM84.1558 19.7486C83.7115 19.3043 83.4894 18.6984 83.4894 17.9512C83.4894 17.204 83.7115 16.5981 84.1558 16.1539C84.6001 15.7096 85.1857 15.4874 85.8926 15.4874C86.5994 15.4874 87.1851 15.7096 87.6294 16.1539C88.0736 16.5981 88.2958 17.204 88.2958 17.9512C88.2958 18.6984 88.0736 19.3043 87.6294 19.7486C87.1851 20.1929 86.5994 20.415 85.8926 20.415C85.1857 20.415 84.6001 20.1929 84.1558 19.7486ZM100.07 18.4157C100.07 19.789 99.3435 20.4958 98.1923 20.4958C97.1624 20.4958 96.4354 19.8496 96.4354 18.658V12.9024H93.4061V19.1023C93.4061 20.415 93.7696 21.4248 94.4764 22.172C95.2035 22.9192 96.1122 23.2827 97.1826 23.2827C98.4953 23.2827 99.4646 22.8788 100.07 22.0508V23H103.1V12.9024H100.07V18.4157ZM111.239 12.6197C109.926 12.6197 108.957 13.0236 108.351 13.8516V12.9024H105.321V23H108.351V17.4867C108.351 16.1135 109.078 15.4066 110.229 15.4066C111.259 15.4066 111.986 16.0529 111.986 17.2444V23H115.015V16.8001C115.015 15.4874 114.652 14.4777 113.925 13.7304C113.218 12.9832 112.309 12.6197 111.239 12.6197ZM121.942 23.2827C123.901 23.2827 125.618 22.273 126.506 20.6776L123.861 19.1629C123.517 19.9101 122.851 20.2939 121.902 20.2939C120.589 20.2939 119.62 19.3245 119.62 17.9512C119.62 16.578 120.589 15.6086 121.902 15.6086C122.851 15.6086 123.497 15.9923 123.861 16.7395L126.506 15.2047C125.618 13.6497 123.881 12.6197 121.942 12.6197C120.407 12.6197 119.135 13.1246 118.105 14.1545C117.095 15.1845 116.59 16.4366 116.59 17.9512C116.59 19.4659 117.095 20.718 118.105 21.7479C119.135 22.7779 120.407 23.2827 121.942 23.2827ZM133.643 12.6197C132.33 12.6197 131.36 13.0236 130.755 13.8516V8.86341H127.725V23H130.755V17.4867C130.755 16.1135 131.482 15.4066 132.633 15.4066C133.663 15.4066 134.39 16.0529 134.39 17.2444V23H137.419V16.8001C137.419 15.4874 137.055 14.4777 136.328 13.7304C135.622 12.9832 134.713 12.6197 133.643 12.6197ZM142.569 22.7173C143.316 21.97 143.316 20.7583 142.569 20.0111C141.822 19.2639 140.61 19.2639 139.863 20.0111C139.116 20.7583 139.116 21.97 139.863 22.7173C140.61 23.4645 141.822 23.4645 142.569 22.7173ZM149.198 23.2827C151.157 23.2827 152.873 22.273 153.762 20.6776L151.116 19.1629C150.773 19.9101 150.106 20.2939 149.157 20.2939C147.845 20.2939 146.875 19.3245 146.875 17.9512C146.875 16.578 147.845 15.6086 149.157 15.6086C150.106 15.6086 150.753 15.9923 151.116 16.7395L153.762 15.2047C152.873 13.6497 151.136 12.6197 149.198 12.6197C147.663 12.6197 146.391 13.1246 145.361 14.1545C144.351 15.1845 143.846 16.4366 143.846 17.9512C143.846 19.4659 144.351 20.718 145.361 21.7479C146.391 22.7779 147.663 23.2827 149.198 23.2827ZM163.427 21.7479C164.457 20.718 164.982 19.4457 164.982 17.9512C164.982 16.4568 164.457 15.2047 163.427 14.1747C162.397 13.1448 161.125 12.6197 159.63 12.6197C158.136 12.6197 156.864 13.1448 155.834 14.1747C154.804 15.2047 154.279 16.4568 154.279 17.9512C154.279 19.4457 154.804 20.718 155.834 21.7479C156.864 22.7779 158.136 23.2827 159.63 23.2827C161.125 23.2827 162.397 22.7779 163.427 21.7479ZM157.974 19.6678C157.53 19.2235 157.308 18.658 157.308 17.9512C157.308 17.2444 157.53 16.6789 157.974 16.2346C158.419 15.7903 158.964 15.5682 159.63 15.5682C160.297 15.5682 160.842 15.7903 161.286 16.2346C161.731 16.6789 161.953 17.2444 161.953 17.9512C161.953 18.658 161.731 19.2235 161.286 19.6678C160.842 20.1121 160.297 20.3342 159.63 20.3342C158.964 20.3342 158.419 20.1121 157.974 19.6678ZM178.005 12.6197C176.672 12.6197 175.703 13.064 175.077 13.9526C174.491 13.064 173.602 12.6197 172.431 12.6197C171.179 12.6197 170.27 13.0236 169.725 13.8314V12.9024H166.696V23H169.725V17.305C169.725 16.1135 170.311 15.4066 171.3 15.4066C172.249 15.4066 172.754 16.0327 172.754 17.0626V23H175.783V17.305C175.783 16.1135 176.369 15.4066 177.359 15.4066C178.308 15.4066 178.813 16.0327 178.813 17.0626V23H181.842V16.8001C181.842 15.5278 181.499 14.518 180.792 13.7708C180.085 13.0034 179.156 12.6197 178.005 12.6197Z" fill="black"></path><defs><linearGradient id="paint0_linear_9898_36436" x1="3.20557" y1="0.873573" x2="24.0809" y2="24.1002" gradientUnits="userSpaceOnUse"><stop stop-color="#5CEBDA"></stop><stop offset="1" stop-color="#099484"></stop></linearGradient><linearGradient id="paint1_linear_9898_36436" x1="11.2245" y1="11.3487" x2="3.53457" y2="8.78923" gradientUnits="userSpaceOnUse"><stop stop-color="#097568"></stop><stop offset="0.145098" stop-color="#84BAB3"></stop><stop offset="0.560784" stop-color="white"></stop><stop offset="1" stop-color="white"></stop></linearGradient><linearGradient id="paint2_linear_9898_36436" x1="12.6194" y1="21.0867" x2="18.1751" y2="21.5986" gradientUnits="userSpaceOnUse"><stop stop-color="#099484"></stop><stop offset="1" stop-color="#FEFEFE"></stop></linearGradient><clipPath id="clip0_9898_36436"><rect width="32" height="32" fill="white"></rect></clipPath></defs></svg> 